<?xml version="1.0" encoding="iso-8859-1"?>
<!-- Generator: Adobe Illustrator 19.0.0, SVG Export Plug-In . SVG Version: 6.00 Build 0)  -->
<svg version="1.1" id="Capa_1" xmlns="http://www.w3.org/2000/svg" xmlns:xlink="http://www.w3.org/1999/xlink" x="0px" y="0px"
	 viewBox="0 0 481.408 481.408" style="enable-background:new 0 0 481.408 481.408;" xml:space="preserve">
<g>
	<g>
		<path d="M355.84,321.779c-9.728,0-17.92,8.192-17.92,17.92c0,9.728,8.192,17.92,17.92,17.92c9.728,0,17.92-8.192,17.92-17.92
			C373.76,329.971,365.568,321.779,355.84,321.779z M355.84,347.379c-4.096,0-7.68-3.584-7.68-7.68s3.584-7.68,7.68-7.68
			s7.68,3.584,7.68,7.68S359.936,347.379,355.84,347.379z"/>
	</g>
</g>
<g>
	<g>
		<path d="M480.256,168.691c-1.536-3.072-4.608-5.12-7.68-5.12l-38.4-4.608c-80.384-58.368-180.736-79.36-278.016-57.344l-64,14.336
			l-29.696-4.096h-0.512H61.44h-51.2c-5.632,0-10.24,4.608-10.24,10.24c0,5.632,4.608,10.24,10.24,10.24h43.008l49.152,197.12
			c1.024,4.608,5.12,7.68,9.728,7.68h26.624l-33.792,33.792c-4.096,4.096-4.096,10.24,0,14.336c2.56,2.048,5.12,3.072,7.68,3.072
			s5.12-1.024,7.168-3.072l48.128-48.128H307.2c0,1.024,0,1.536,0,2.56c0,26.624,22.016,48.64,48.64,48.64
			c26.624,0,48.64-22.016,48.64-48.64c0-3.072-0.512-6.144-1.024-8.704l76.8-153.088
			C481.792,174.835,481.792,171.251,480.256,168.691z M355.84,367.859c-15.36,0-28.16-12.8-28.16-28.16
			c0-15.36,12.8-28.16,28.16-28.16c15.36,0,28.16,12.8,28.16,28.16C384,355.059,371.2,367.859,355.84,367.859z M422.912,280.307
			c-2.048,2.048-5.12,2.048-7.168,0c-15.872-16.384-37.376-25.088-59.904-25.088c-41.984,0-77.824,31.232-83.456,72.704
			c-0.512,2.56-2.56,4.608-5.12,4.608h-0.512c-2.56-0.512-4.608-3.072-4.608-5.632c1.024-7.168,2.56-13.824,5.12-19.968H138.24
			c-3.072,0-5.12-2.048-5.12-5.12c0-3.072,2.048-5.12,5.12-5.12h133.632c15.872-30.72,48.128-51.2,83.968-51.2
			c25.6,0,49.152,9.728,67.072,28.16C424.96,275.187,424.96,278.259,422.912,280.307z M452.608,188.147
			c-1.536,1.536-3.584,3.072-5.632,2.56l-366.08-45.568c-2.048-0.512-3.584-1.536-4.096-3.584c-1.024-3.584,2.048-6.656,5.632-6.144
			l366.08,45.568C452.096,181.491,454.144,185.075,452.608,188.147z"/>
	</g>
</g>
<g>
</g>
<g>
</g>
<g>
</g>
<g>
</g>
<g>
</g>
<g>
</g>
<g>
</g>
<g>
</g>
<g>
</g>
<g>
</g>
<g>
</g>
<g>
</g>
<g>
</g>
<g>
</g>
<g>
</g>
</svg>
