<?xml version="1.0" encoding="iso-8859-1"?>
<!-- Generator: Adobe Illustrator 19.0.0, SVG Export Plug-In . SVG Version: 6.00 Build 0)  -->
<svg version="1.1" id="Layer_1" xmlns="http://www.w3.org/2000/svg" xmlns:xlink="http://www.w3.org/1999/xlink" x="0px" y="0px"
	 viewBox="0 0 512 512" style="enable-background:new 0 0 512 512;" xml:space="preserve">
<circle style="fill:#FFC61B;" cx="256" cy="256" r="256"/>
<path style="fill:#EAA22F;" d="M511.921,262.32L394.668,145.067l5.268,5.268l-5.268-5.268l-27.734-27.732l-17.372,33.116
	l24.455,24.455l-75.35,68.294L172.799,117.332l-7.808,38.896l111.766,111.766l-31.82,27.51l-127.605,99.161l116.355,116.355
	C241.042,511.655,248.48,512,256,512C395.273,512,508.564,400.784,511.921,262.32z"/>
<rect x="117.329" y="172.804" style="fill:#FFFFFF;" width="277.325" height="221.867"/>
<g>
	<rect x="255.431" y="172.804" style="fill:#D0D1D3;" width="139.24" height="221.867"/>
	<rect x="134.465" y="195.784" style="fill:#D0D1D3;" width="243.071" height="175.597"/>
</g>
<rect x="255.431" y="195.784" style="fill:#A6A8AA;" width="122.109" height="175.597"/>
<rect x="117.329" y="145.067" style="fill:#C92F00;" width="277.325" height="55.458"/>
<rect x="255.431" y="145.067" style="fill:#930000;" width="139.24" height="55.458"/>
<rect x="145.067" y="117.329" style="fill:#FFEDB5;" width="27.738" height="55.458"/>
<rect x="339.196" y="117.329" style="fill:#FEE187;" width="27.738" height="55.458"/>
<g>
	<rect x="156.444" y="227.556" style="fill:#A6A8AA;" width="28.444" height="28.444"/>
	<rect x="213.333" y="227.556" style="fill:#A6A8AA;" width="28.444" height="28.444"/>
</g>
<g>
	<rect x="270.222" y="227.556" style="fill:#808183;" width="28.444" height="28.444"/>
	<rect x="327.111" y="227.556" style="fill:#808183;" width="28.444" height="28.444"/>
</g>
<g>
	<rect x="156.444" y="271.084" style="fill:#A6A8AA;" width="28.444" height="28.444"/>
	<rect x="213.333" y="271.084" style="fill:#A6A8AA;" width="28.444" height="28.444"/>
</g>
<g>
	<rect x="270.222" y="271.084" style="fill:#808183;" width="28.444" height="28.444"/>
	<rect x="327.111" y="271.084" style="fill:#808183;" width="28.444" height="28.444"/>
</g>
<g>
	<rect x="156.444" y="315.906" style="fill:#A6A8AA;" width="28.444" height="28.444"/>
	<rect x="213.333" y="315.906" style="fill:#A6A8AA;" width="28.444" height="28.444"/>
</g>
<g>
	<rect x="270.222" y="315.906" style="fill:#808183;" width="28.444" height="28.444"/>
	<rect x="327.111" y="315.906" style="fill:#808183;" width="28.444" height="28.444"/>
</g>
<g>
	<path style="fill:#477F3C;" d="M227.556,288.754c-0.079,0-0.159-0.002-0.24-0.007c-1.224-0.067-2.36-0.653-3.125-1.612
		l-10.343-12.929c-1.486-1.858-1.186-4.57,0.674-6.058c1.862-1.489,4.57-1.184,6.058,0.674l7.335,9.168l25.04-25.038
		c1.684-1.684,4.411-1.684,6.094,0s1.684,4.411,0,6.094l-28.444,28.444C229.793,288.303,228.695,288.754,227.556,288.754z"/>
	<path style="fill:#477F3C;" d="M284.444,340.04c-0.079,0-0.159-0.002-0.24-0.007c-1.224-0.067-2.36-0.653-3.125-1.612
		l-10.343-12.929c-1.486-1.858-1.186-4.57,0.674-6.058c1.86-1.489,4.57-1.184,6.058,0.674l7.335,9.168l25.04-25.038
		c1.684-1.684,4.411-1.684,6.094,0s1.684,4.411,0,6.094l-28.444,28.444C286.682,339.589,285.584,340.04,284.444,340.04z"/>
</g>
<g>
</g>
<g>
</g>
<g>
</g>
<g>
</g>
<g>
</g>
<g>
</g>
<g>
</g>
<g>
</g>
<g>
</g>
<g>
</g>
<g>
</g>
<g>
</g>
<g>
</g>
<g>
</g>
<g>
</g>
</svg>
