<?xml version="1.0" encoding="iso-8859-1"?>
<!-- Generator: Adobe Illustrator 19.0.0, SVG Export Plug-In . SVG Version: 6.00 Build 0)  -->
<svg version="1.1" id="Layer_1" xmlns="http://www.w3.org/2000/svg" xmlns:xlink="http://www.w3.org/1999/xlink" x="0px" y="0px"
	 viewBox="0 0 512 512" style="enable-background:new 0 0 512 512;" xml:space="preserve">
<g>
	<g>
		<path d="M240.147,270.639c-3.212-7.436-9.471-13.142-17.109-15.637l-14.346-4.82l-5.835-56.747
			c-2.536-24.643-17.389-45.145-38.098-55.7c23.966-11.879,40.489-36.594,40.489-65.107C205.248,32.581,172.667,0,132.619,0
			C92.572,0,59.99,32.581,59.99,72.629c0,28.512,16.521,53.226,40.487,65.106c-20.71,10.554-35.565,31.057-38.101,55.702
			l-7.31,71.101c-0.43,4.178,2.609,7.912,6.787,8.342c0.265,0.027,0.527,0.041,0.786,0.041c3.851,0,7.153-2.914,7.555-6.826
			l7.31-71.1c1.021-9.927,4.596-18.993,10.024-26.592c12.778,10.163,28.502,15.695,45.088,15.695
			c16.587,0,32.311-5.532,45.088-15.695c5.428,7.599,9.002,16.665,10.023,26.591l5.128,49.871l-15.909-5.345l-3.528-42.645
			c-0.347-4.185-4.031-7.287-8.205-6.951c-4.185,0.347-7.298,4.02-6.951,8.205l1.746,21.099l-23.625,10.754l-1.136-10.429
			c-0.454-4.174-4.204-7.188-8.383-6.736c-4.175,0.454-7.191,4.208-6.737,8.383l2.286,21.002c0,0.004,0.001,0.008,0.001,0.012
			l2.754,25.291c0.994,9.127,7.264,16.899,15.974,19.8l58.067,19.34l9.95,96.729H56.081l11.435-111.235
			c0.43-4.178-2.609-7.912-6.787-8.342c-4.191-0.432-7.912,2.61-8.342,6.786L40.091,410.2c-0.22,2.141,0.478,4.274,1.919,5.872
			c1.443,1.598,3.493,2.509,5.645,2.509h46.944v85.814c0,4.199,3.404,7.604,7.604,7.604h77.488c4.2,0,7.604-3.405,7.604-7.604
			v-7.477c0-16.581-11.654-30.491-27.202-33.969v-44.368h57.495c2.152,0,4.203-0.911,5.645-2.51
			c1.442-1.598,2.138-3.731,1.919-5.872l-10.298-100.115c10.443-0.256,20.262-6.301,24.923-16.212
			C243.224,286.544,243.359,278.075,240.147,270.639z M75.198,72.629c0-31.662,25.758-57.421,57.421-57.421
			s57.421,25.759,57.421,57.421c0,31.639-25.721,57.382-57.351,57.42c-0.024,0-0.048-0.002-0.072-0.002
			c-0.023,0-0.047,0.002-0.07,0.002C100.918,130.009,75.198,104.267,75.198,72.629z M132.616,168.887
			c-12.653,0.001-24.671-4.068-34.573-11.568c9.483-7.562,21.486-12.047,34.503-12.063c0.024,0,0.048,0.002,0.072,0.002
			c0.023,0,0.047-0.002,0.07-0.002c13.017,0.016,25.019,4.501,34.501,12.063C157.288,164.818,145.269,168.887,132.616,168.887z
			 M109.806,418.581h35.079v43.531h-35.079V418.581z M172.087,496.792h-62.28V477.32h42.683
			C163.253,477.32,172.019,486.043,172.087,496.792z M226.015,287.402c-2.797,5.949-9.62,8.897-15.827,6.868l-64.235-21.396
			c-3.087-1.028-5.309-3.783-5.661-7.018l-2.173-19.956l23.224-10.572l0.863,10.43c0.25,3.026,2.278,5.614,5.156,6.581
			l50.895,17.099c3.608,1.179,6.425,3.747,7.929,7.232C227.691,280.155,227.63,283.967,226.015,287.402z"/>
	</g>
</g>
<g>
	<g>
		<path d="M464.345,272.788h-62.422c2.767-3.583,4.93-7.654,6.324-12.066c5.702,3.91,12.596,6.205,20.017,6.205
			c19.567,0,35.485-15.919,35.485-35.485c0-19.566-15.919-35.485-35.485-35.485c-14.746,0-27.415,9.042-32.765,21.871
			l-22.252-25.392c-4.069-4.643-9.705-7.354-15.871-7.633c-6.159-0.275-12.024,1.908-16.497,6.163
			c-8.252,7.849-9.32,20.638-2.488,29.748l4.239,5.652h-13.702c-0.388-11.674-8.824-21.689-20.344-23.993l-17.506-3.502
			c-11.733-2.346-23.271,4.889-26.274,16.468v0.001c-2.998,11.568,3.565,23.494,14.941,27.151l9.656,3.104v13.9
			c0,4.799,1.197,9.321,3.301,13.293h-21.487c-4.2,0-7.604,3.405-7.604,7.604v36.497c0,4.199,3.404,7.604,7.604,7.604h138.891
			c4.2,0,7.604-3.405,7.604-7.604s-3.404-7.604-7.604-7.604H278.818v-21.289h177.923v21.289h-21.289c-4.2,0-7.604,3.405-7.604,7.604
			s3.404,7.604,7.604,7.604h28.893c4.2,0,7.604-3.405,7.604-7.604v-36.497C471.949,276.192,468.545,272.788,464.345,272.788z
			 M428.263,211.164c11.181,0,20.277,9.096,20.277,20.277s-9.096,20.277-20.277,20.277s-20.277-9.096-20.277-20.277
			S417.082,211.164,428.263,211.164z M371.054,272.788h-53.153v0c-7.329,0-13.293-5.964-13.293-13.293v-19.444
			c0-3.303-2.133-6.228-5.277-7.239l-14.933-4.8c-3.711-1.193-5.851-5.082-4.875-8.856c0.979-3.779,4.747-6.139,8.571-5.372
			l17.506,3.502c4.712,0.942,8.132,5.114,8.132,9.921v6.763v11.152c0,4.199,3.404,7.604,7.604,7.604s7.604-3.405,7.604-7.604v-3.549
			h28.895c2.88,0,5.513-1.627,6.801-4.203c1.289-2.576,1.01-5.659-0.718-7.963l-13.364-17.819c-2.206-2.941-1.86-7.07,0.803-9.604
			c1.445-1.373,3.345-2.08,5.326-1.989c1.991,0.09,3.811,0.965,5.124,2.464l25.725,29.354c0.109,0.126,0.224,0.247,0.342,0.365
			c4.493,4.492,6.967,10.467,6.967,16.821C394.842,262.117,384.171,272.788,371.054,272.788z"/>
	</g>
</g>
<g>
</g>
<g>
</g>
<g>
</g>
<g>
</g>
<g>
</g>
<g>
</g>
<g>
</g>
<g>
</g>
<g>
</g>
<g>
</g>
<g>
</g>
<g>
</g>
<g>
</g>
<g>
</g>
<g>
</g>
</svg>
