<?xml version="1.0" encoding="iso-8859-1"?>
<!-- Generator: Adobe Illustrator 18.0.0, SVG Export Plug-In . SVG Version: 6.00 Build 0)  -->
<!DOCTYPE svg PUBLIC "-//W3C//DTD SVG 1.1//EN" "http://www.w3.org/Graphics/SVG/1.1/DTD/svg11.dtd">
<svg version="1.1" id="Capa_1" xmlns="http://www.w3.org/2000/svg" xmlns:xlink="http://www.w3.org/1999/xlink" x="0px" y="0px"
	 viewBox="0 0 484.008 484.008" style="enable-background:new 0 0 484.008 484.008;" xml:space="preserve">
<g id="XMLID_140_">
	<path id="XMLID_145_" d="M293.195,215.003c-3.043-17.554,8.712-34.262,26.281-37.309l50.619-8.784V66.08
		c0-9.099-7.37-16.472-16.466-16.472H129.084c-9.09,0-16.466,7.373-16.466,16.472v102.602l51.914,9.012
		c17.567,3.047,29.323,19.755,26.28,37.309c-3.056,17.56-19.756,29.328-37.306,26.28l-40.889-7.097v12.044
		c0,9.098,7.376,16.471,16.466,16.471H353.63c9.096,0,16.466-7.373,16.466-16.471v-11.816l-39.595,6.87
		C312.95,244.331,296.251,232.563,293.195,215.003z"/>
	<path id="XMLID_144_" d="M74.287,227.529c-9.263-1.608-16.369-8.373-18.873-16.828l-20.469-69.419l31.337,64.11
		c2.835,5.815,8.305,9.911,14.669,11.013l74.617,12.952c1.168,0.204,2.33,0.3,3.48,0.3c9.611,0,18.138-6.909,19.839-16.717
		c1.906-10.974-5.452-21.421-16.417-23.318l-64.474-11.196l-26.812-54.853l27.347,38.097v-0.117
		c0-31.999-25.934-57.933-57.93-57.933C18.18,103.62,0,121.802,0,144.221l0.185,315.348c0,13.368,10.841,24.201,24.202,24.201
		c13.361,0,24.201-10.833,24.201-24.201V315.349h16.136v144.219c0,6.98-1.941,13.439-5.045,19.159
		c4.068,3.119,9.107,5.042,14.621,5.042c13.361,0,24.199-10.833,24.199-24.201l0.031-227.824l-19.647-3.412L74.287,227.529z"/>
	<path id="XMLID_143_" d="M49.247,94.542c26.048,0,47.157-21.104,47.157-47.147c0-26.053-21.109-47.156-47.157-47.156
		c-26.058,0-47.155,21.103-47.155,47.156C2.092,73.439,23.189,94.542,49.247,94.542z"/>
	<path id="XMLID_142_" d="M443.406,103.62c-31.996,0-57.929,25.933-57.929,57.933v1.174l23.218-30.699l-22.686,46.397
		l-64.473,11.196c-10.965,1.896-18.322,12.344-16.417,23.318c1.701,9.808,10.228,16.717,19.839,16.717c1.15,0,2.312-0.096,3.48-0.3
		l74.617-12.952c6.364-1.102,11.834-5.198,14.669-11.013l27.197-55.649l-16.329,60.958c-2.389,8.943-9.718,15.237-18.273,16.732
		l-5.195,0.899l-19.648,3.412l0.029,227.824c0,13.368,10.839,24.201,24.201,24.201c5.513,0,10.552-1.923,14.62-5.042
		c-3.104-5.719-5.045-12.179-5.045-19.159V315.349h16.137v144.219c0,13.368,10.839,24.201,24.201,24.201
		c13.361,0,24.201-10.833,24.201-24.201l0.186-205.87V144.221C484.008,121.802,465.828,103.62,443.406,103.62z"/>
	<path id="XMLID_141_" d="M434.76,94.542c26.059,0,47.157-21.104,47.157-47.147c0-26.053-21.099-47.156-47.157-47.156
		c-26.047,0-47.155,21.103-47.155,47.156C387.604,73.439,408.713,94.542,434.76,94.542z"/>
</g>
<g>
</g>
<g>
</g>
<g>
</g>
<g>
</g>
<g>
</g>
<g>
</g>
<g>
</g>
<g>
</g>
<g>
</g>
<g>
</g>
<g>
</g>
<g>
</g>
<g>
</g>
<g>
</g>
<g>
</g>
</svg>
